<?xml version="1.0" encoding="utf-8"?>
<!-- Generator: Adobe Illustrator 24.0.1, SVG Export Plug-In . SVG Version: 6.00 Build 0)  -->
<svg version="1.1" id="Layer_1" xmlns="http://www.w3.org/2000/svg" xmlns:xlink="http://www.w3.org/1999/xlink" x="0px" y="0px"
	 viewBox="0 0 44 44" style="enable-background:new 0 0 44 44;" xml:space="preserve">
<style type="text/css">
	.st0{fill-rule:evenodd;clip-rule:evenodd;}
</style>
<path class="st0" d="M32,32c-0.3,0-0.6,0-1.1,0l3.6-4.4c3.2-1.1,5.5-4.1,5.5-7.6c0-4.4-3.6-8-8-8c-1.6,0-3.1,0.5-4.3,1.3
	C26.4,8,21.7,4,16,4C9.4,4,4,9.4,4,16c0,5.4,3.6,10,8.6,11.5l-1.3,3.8C4.7,29.3,0,23.2,0,16C0,7.2,7.2,0,16,0c6,0,11.2,3.3,14,8.2
	C30.6,8.1,31.3,8,32,8c6.6,0,12,5.4,12,12S38.6,32,32,32z M20,18h10l-6,10h7L18,44l3.6-12H15L20,18z"/>
</svg>
