<?xml version="1.0" encoding="utf-8"?>
<!-- Generator: Adobe Illustrator 24.0.1, SVG Export Plug-In . SVG Version: 6.00 Build 0)  -->
<svg version="1.1" id="Layer_1" xmlns="http://www.w3.org/2000/svg" xmlns:xlink="http://www.w3.org/1999/xlink" x="0px" y="0px"
	 viewBox="0 0 44 40" style="enable-background:new 0 0 44 40;" xml:space="preserve">
<style type="text/css">
	.st0{fill-rule:evenodd;clip-rule:evenodd;}
</style>
<path class="st0" d="M42,32H2c-1.1,0-2-0.9-2-2c0-1.1,0.9-2,2-2h40c1.1,0,2,0.9,2,2C44,31.1,43.1,32,42,32z M42,24H2
	c-1.1,0-2-0.9-2-2c0-1.1,0.9-2,2-2h40c1.1,0,2,0.9,2,2C44,23.1,43.1,24,42,24z M32,12c-1.6,0-3.1,0.5-4.3,1.3C26.4,8,21.7,4,16,4
	C9.4,4,4,9.4,4,16H0C0,7.2,7.2,0,16,0c6,0,11.2,3.3,14,8.2C30.6,8.1,31.3,8,32,8c5.2,0,9.7,3.3,11.3,8h-4.4C37.5,13.6,35,12,32,12z
	 M2,36h40c1.1,0,2,0.9,2,2c0,1.1-0.9,2-2,2H2c-1.1,0-2-0.9-2-2C0,36.9,0.9,36,2,36z"/>
</svg>
