<?xml version="1.0" encoding="utf-8"?>
<!-- Generator: Adobe Illustrator 24.0.1, SVG Export Plug-In . SVG Version: 6.00 Build 0)  -->
<svg version="1.1" id="Layer_1" xmlns="http://www.w3.org/2000/svg" xmlns:xlink="http://www.w3.org/1999/xlink" x="0px" y="0px"
	 viewBox="0 0 21.3 24" style="enable-background:new 0 0 21.3 24;" xml:space="preserve">
<style type="text/css">
	.st0{fill-rule:evenodd;clip-rule:evenodd;}
</style>
<path class="st0" d="M20.3,8.7l-2,1.1c0.2,0.7,0.3,1.4,0.3,2.1c0,0.7-0.1,1.5-0.3,2.1l2,1.1c1,0.6,1.3,1.8,0.7,2.7
	c-0.6,1-1.8,1.3-2.7,0.7l-2-1.1c-1,1-2.3,1.8-3.7,2.1V22c0,1.1-0.9,2-2,2s-2-0.9-2-2v-2.3C7.2,19.4,6,18.6,5,17.6l-2,1.1
	C2,19.3,0.8,19,0.3,18C-0.3,17,0,15.8,1,15.3l2-1.1c-0.2-0.7-0.3-1.4-0.3-2.1c0-0.7,0.1-1.5,0.3-2.1L1,8.7C0,8.2-0.3,7,0.3,6
	C0.8,5,2,4.7,3,5.3l2,1.1c1-1,2.3-1.8,3.7-2.1V2c0-1.1,0.9-2,2-2s2,0.9,2,2v2.3c1.4,0.4,2.7,1.1,3.7,2.1l2-1.1C19.3,4.7,20.5,5,21,6
	C21.6,7,21.3,8.2,20.3,8.7z M10.7,8c-2.2,0-4,1.8-4,4c0,2.2,1.8,4,4,4s4-1.8,4-4C14.7,9.8,12.9,8,10.7,8z"/>
</svg>
