<?xml version="1.0" encoding="utf-8"?>
<!-- Generator: Adobe Illustrator 24.0.1, SVG Export Plug-In . SVG Version: 6.00 Build 0)  -->
<svg version="1.1" id="Layer_1" xmlns="http://www.w3.org/2000/svg" xmlns:xlink="http://www.w3.org/1999/xlink" x="0px" y="0px"
	 viewBox="0 0 349.2 178.5" style="enable-background:new 0 0 349.2 178.5;" xml:space="preserve">
<style type="text/css">
	.st0{fill:#7A5FC4;}
	.st1{fill:#414042;}
	.st2{fill:#0099CE;}
</style>
<g>
	<path class="st0" d="M93.82,10.51h34.2v10.37h-22.97v10.37h21.24v10.37h-21.24v19.87H93.82V10.51z"/>
	<path class="st0" d="M145.29,34.42c-1.73,0-3.34-0.32-4.82-0.97c-1.49-0.65-2.8-1.54-3.92-2.66c-1.13-1.13-2.02-2.44-2.66-3.92
		c-0.65-1.49-0.97-3.1-0.97-4.82s0.32-3.34,0.97-4.82c0.65-1.49,1.54-2.8,2.66-3.92c1.13-1.13,2.44-2.02,3.92-2.66
		c1.49-0.65,3.1-0.97,4.82-0.97c1.73,0,3.34,0.32,4.82,0.97c1.49,0.65,2.8,1.54,3.92,2.66c1.13,1.13,2.02,2.44,2.66,3.92
		c0.65,1.49,0.97,3.1,0.97,4.82s-0.32,3.34-0.97,4.82c-0.65,1.49-1.54,2.8-2.66,3.92c-1.13,1.13-2.44,2.02-3.92,2.66
		C148.63,34.09,147.02,34.42,145.29,34.42z M145.29,28.37c1.78,0,3.28-0.61,4.5-1.84c1.22-1.22,1.84-2.72,1.84-4.5
		c0-1.78-0.61-3.28-1.84-4.5c-1.22-1.22-2.72-1.84-4.5-1.84c-1.78,0-3.28,0.61-4.5,1.84c-1.22,1.22-1.84,2.72-1.84,4.5
		c0,1.78,0.61,3.28,1.84,4.5C142.02,27.76,143.52,28.37,145.29,28.37z"/>
	<path class="st0" d="M198.21,23.76c-1.11-1.34-2.46-2.38-4.07-3.1c-1.61-0.72-3.47-1.08-5.58-1.08c-2.11,0-4.07,0.41-5.87,1.22
		c-1.8,0.82-3.36,1.96-4.68,3.42c-1.32,1.46-2.35,3.2-3.1,5.22c-0.75,2.02-1.12,4.2-1.12,6.55c0,2.4,0.37,4.6,1.12,6.59
		c0.74,1.99,1.76,3.72,3.06,5.18c1.3,1.46,2.82,2.6,4.57,3.42c1.75,0.82,3.64,1.22,5.65,1.22c2.3,0,4.34-0.48,6.12-1.44
		c1.78-0.96,3.24-2.3,4.39-4.03l9.36,6.98c-2.16,3.02-4.9,5.26-8.21,6.7c-3.31,1.44-6.72,2.16-10.22,2.16
		c-3.98,0-7.66-0.62-11.02-1.87c-3.36-1.25-6.26-3.04-8.71-5.36c-2.45-2.33-4.36-5.15-5.72-8.46s-2.05-7.01-2.05-11.09
		c0-4.08,0.68-7.78,2.05-11.09s3.28-6.13,5.72-8.46c2.45-2.33,5.35-4.12,8.71-5.36c3.36-1.25,7.03-1.87,11.02-1.87
		c1.44,0,2.94,0.13,4.5,0.4c1.56,0.26,3.1,0.68,4.61,1.26c1.51,0.58,2.96,1.34,4.36,2.3c1.39,0.96,2.64,2.14,3.74,3.53L198.21,23.76
		z"/>
	<path class="st0" d="M214.63,10.51h11.23v21.17l19.8-21.17h14.69L237.67,34.2l24.62,27.29h-15.7L225.86,37.3v24.19h-11.23V10.51z"
		/>
	<path class="st1" d="M5.18,68.51h16.99l11.74,33.26h0.14l11.81-33.26h16.92v50.98H51.55v-39.1h-0.14l-13.39,39.1h-8.57l-12.89-39.1
		h-0.14v39.1H5.18V68.51z"/>
	<path class="st1" d="M70.42,94c0-4.08,0.68-7.78,2.05-11.09s3.28-6.13,5.72-8.46c2.45-2.33,5.35-4.12,8.71-5.36
		c3.36-1.25,7.03-1.87,11.02-1.87c3.98,0,7.66,0.62,11.02,1.87c3.36,1.25,6.26,3.04,8.71,5.36c2.45,2.33,4.36,5.15,5.72,8.46
		c1.37,3.31,2.05,7.01,2.05,11.09c0,4.08-0.68,7.78-2.05,11.09c-1.37,3.31-3.28,6.13-5.72,8.46c-2.45,2.33-5.35,4.12-8.71,5.36
		c-3.36,1.25-7.03,1.87-11.02,1.87c-3.99,0-7.66-0.62-11.02-1.87c-3.36-1.25-6.26-3.04-8.71-5.36c-2.45-2.33-4.36-5.15-5.72-8.46
		S70.42,98.08,70.42,94z M82.08,94c0,2.4,0.37,4.6,1.12,6.59c0.74,1.99,1.81,3.72,3.2,5.18c1.39,1.46,3.06,2.6,5,3.42
		c1.94,0.82,4.12,1.22,6.52,1.22c2.4,0,4.57-0.41,6.52-1.22c1.94-0.82,3.61-1.96,5-3.42c1.39-1.46,2.46-3.19,3.2-5.18
		c0.74-1.99,1.12-4.19,1.12-6.59c0-2.35-0.37-4.54-1.12-6.55c-0.75-2.02-1.81-3.76-3.2-5.22c-1.39-1.46-3.06-2.6-5-3.42
		c-1.94-0.82-4.12-1.22-6.52-1.22c-2.4,0-4.57,0.41-6.52,1.22c-1.94,0.82-3.61,1.96-5,3.42c-1.39,1.46-2.46,3.2-3.2,5.22
		S82.08,91.65,82.08,94z"/>
	<path class="st1" d="M133.05,68.51h15.26l21.67,35.42h0.14V68.51h11.23v50.98h-14.69L144.43,83.2h-0.14v36.29h-11.23V68.51z"/>
	<path class="st1" d="M191.73,68.51h16.85c4.08,0,7.96,0.46,11.63,1.37c3.67,0.91,6.88,2.39,9.61,4.43
		c2.74,2.04,4.91,4.69,6.52,7.96c1.61,3.26,2.41,7.23,2.41,11.88c0,4.13-0.78,7.77-2.34,10.91c-1.56,3.14-3.66,5.78-6.3,7.92
		c-2.64,2.14-5.69,3.76-9.14,4.86c-3.46,1.1-7.08,1.66-10.87,1.66h-18.36V68.51z M202.96,109.12h5.83c2.59,0,5-0.26,7.24-0.79
		c2.23-0.53,4.16-1.4,5.8-2.63s2.92-2.83,3.85-4.82c0.94-1.99,1.4-4.43,1.4-7.31c0-2.5-0.47-4.67-1.4-6.52
		c-0.94-1.85-2.2-3.37-3.78-4.57c-1.58-1.2-3.44-2.1-5.58-2.7c-2.14-0.6-4.38-0.9-6.73-0.9h-6.62V109.12z"/>
	<path class="st1" d="M263.16,68.51h9.29l22.18,50.98h-12.67l-4.39-10.8h-19.8l-4.25,10.8h-12.38L263.16,68.51z M267.48,83.34
		l-6.19,15.84h12.46L267.48,83.34z"/>
	<path class="st1" d="M306.93,97.74l-19.15-29.23h13.97l10.8,19.08L324,68.51h13.32l-19.15,29.23v21.74h-11.23V97.74z"/>
	<path class="st1" d="M331.92,113.3c0-0.91,0.17-1.78,0.5-2.59c0.33-0.82,0.8-1.52,1.4-2.12c0.6-0.6,1.31-1.07,2.12-1.4
		c0.82-0.34,1.68-0.5,2.59-0.5s1.78,0.17,2.59,0.5c0.82,0.34,1.52,0.8,2.12,1.4c0.6,0.6,1.07,1.31,1.4,2.12
		c0.34,0.82,0.5,1.68,0.5,2.59c0,0.91-0.17,1.78-0.5,2.59c-0.34,0.82-0.8,1.52-1.4,2.12c-0.6,0.6-1.31,1.07-2.12,1.4
		c-0.82,0.33-1.68,0.5-2.59,0.5s-1.78-0.17-2.59-0.5c-0.82-0.34-1.52-0.8-2.12-1.4c-0.6-0.6-1.07-1.31-1.4-2.12
		C332.08,115.07,331.92,114.21,331.92,113.3z"/>
</g>
<g>
	<path class="st2" d="M14.56,151.81h3.3v7.08h0.04c0.38-0.51,0.87-0.88,1.46-1.09c0.59-0.21,1.24-0.32,1.93-0.32
		c0.76,0,1.44,0.16,2.05,0.47c0.6,0.32,1.11,0.74,1.53,1.27c0.42,0.53,0.74,1.13,0.97,1.81c0.23,0.68,0.34,1.4,0.34,2.15
		c0,0.81-0.13,1.55-0.37,2.22c-0.25,0.67-0.61,1.26-1.07,1.75s-1.02,0.87-1.66,1.14c-0.65,0.27-1.36,0.41-2.16,0.41
		c-0.38,0-0.74-0.05-1.08-0.15c-0.34-0.1-0.65-0.23-0.94-0.4c-0.29-0.16-0.54-0.34-0.75-0.54c-0.21-0.2-0.38-0.39-0.52-0.58H17.6
		v1.41h-3.04V151.81z M17.6,163.1c0,0.81,0.23,1.46,0.69,1.96c0.46,0.5,1.11,0.75,1.95,0.75s1.49-0.25,1.95-0.75
		c0.46-0.5,0.69-1.15,0.69-1.96s-0.23-1.46-0.69-1.96c-0.46-0.5-1.11-0.75-1.95-0.75s-1.48,0.25-1.95,0.75
		C17.83,161.64,17.6,162.29,17.6,163.1z"/>
	<path class="st2" d="M38.23,166.6c-0.53,0.67-1.2,1.2-2,1.56s-1.64,0.55-2.51,0.55c-0.82,0-1.59-0.13-2.32-0.4
		c-0.73-0.26-1.36-0.64-1.89-1.13c-0.54-0.49-0.96-1.08-1.27-1.77c-0.31-0.69-0.46-1.46-0.46-2.31s0.15-1.62,0.46-2.31
		c0.31-0.69,0.73-1.28,1.27-1.77c0.54-0.49,1.17-0.87,1.89-1.13c0.73-0.26,1.5-0.4,2.32-0.4c0.76,0,1.46,0.13,2.08,0.4
		c0.62,0.26,1.15,0.64,1.58,1.13s0.77,1.08,1,1.77c0.23,0.69,0.35,1.46,0.35,2.31v1.03h-7.66c0.13,0.63,0.42,1.13,0.86,1.51
		c0.44,0.37,0.98,0.56,1.63,0.56c0.54,0,1-0.12,1.38-0.36c0.37-0.24,0.7-0.55,0.98-0.93L38.23,166.6z M35.44,161.89
		c0.01-0.56-0.17-1.03-0.55-1.43c-0.38-0.4-0.87-0.59-1.47-0.59c-0.37,0-0.69,0.06-0.97,0.18c-0.28,0.12-0.52,0.27-0.71,0.45
		c-0.2,0.18-0.35,0.4-0.46,0.64c-0.11,0.24-0.17,0.5-0.19,0.76H35.44z"/>
	<path class="st2" d="M47.98,161.21c-0.16-0.23-0.39-0.43-0.68-0.58c-0.29-0.15-0.61-0.23-0.95-0.23c-0.84,0-1.48,0.25-1.95,0.75
		c-0.46,0.5-0.69,1.15-0.69,1.96s0.23,1.46,0.69,1.96c0.46,0.5,1.11,0.75,1.95,0.75c0.37,0,0.68-0.08,0.95-0.24s0.49-0.35,0.68-0.57
		l2.18,2.29c-0.51,0.53-1.12,0.9-1.82,1.11c-0.7,0.21-1.36,0.32-1.99,0.32c-0.82,0-1.59-0.13-2.32-0.4
		c-0.73-0.26-1.36-0.64-1.89-1.13s-0.96-1.08-1.26-1.77s-0.46-1.46-0.46-2.31s0.15-1.62,0.46-2.31s0.73-1.28,1.26-1.77
		s1.17-0.87,1.89-1.13c0.73-0.26,1.5-0.4,2.32-0.4c0.63,0,1.29,0.11,1.99,0.32s1.3,0.58,1.82,1.11L47.98,161.21z"/>
	<path class="st2" d="M58.05,167.1h-0.04c-0.37,0.57-0.85,0.98-1.46,1.23c-0.61,0.25-1.25,0.37-1.92,0.37
		c-0.5,0-0.98-0.07-1.44-0.21c-0.46-0.14-0.87-0.35-1.22-0.63c-0.35-0.28-0.63-0.62-0.84-1.03c-0.21-0.41-0.31-0.89-0.31-1.43
		c0-0.62,0.11-1.14,0.34-1.56c0.23-0.43,0.54-0.78,0.92-1.06c0.39-0.28,0.83-0.5,1.33-0.65c0.5-0.15,1.02-0.27,1.55-0.34
		s1.07-0.12,1.61-0.13c0.54-0.01,1.03-0.02,1.48-0.02c0-0.59-0.21-1.05-0.63-1.4c-0.42-0.34-0.91-0.52-1.48-0.52
		c-0.54,0-1.04,0.11-1.49,0.34s-0.85,0.54-1.2,0.94l-1.76-1.8c0.62-0.57,1.33-1,2.16-1.29c0.82-0.29,1.67-0.43,2.55-0.43
		c0.97,0,1.76,0.12,2.39,0.36s1.12,0.6,1.5,1.07c0.37,0.47,0.63,1.04,0.78,1.73c0.15,0.68,0.22,1.47,0.22,2.37v5.43h-3.04V167.1z
		 M57.24,163.76c-0.25,0-0.56,0.01-0.94,0.03c-0.37,0.02-0.73,0.08-1.08,0.19s-0.64,0.26-0.88,0.46s-0.36,0.49-0.36,0.86
		c0,0.4,0.17,0.69,0.51,0.88c0.34,0.19,0.69,0.29,1.06,0.29c0.32,0,0.63-0.04,0.94-0.13c0.3-0.09,0.57-0.21,0.8-0.37
		c0.23-0.16,0.42-0.37,0.56-0.62c0.14-0.25,0.21-0.54,0.21-0.88v-0.7H57.24z"/>
	<path class="st2" d="M73.45,168.44h-3.17v-1.45h-0.04c-0.12,0.21-0.27,0.41-0.45,0.62s-0.41,0.39-0.67,0.55
		c-0.26,0.16-0.57,0.29-0.9,0.4c-0.34,0.1-0.7,0.15-1.1,0.15c-0.84,0-1.51-0.13-2.04-0.38c-0.52-0.26-0.92-0.61-1.21-1.07
		c-0.29-0.45-0.48-0.99-0.57-1.61s-0.14-1.28-0.14-2v-5.9h3.3v5.24c0,0.31,0.01,0.63,0.03,0.96c0.02,0.33,0.09,0.63,0.2,0.91
		c0.11,0.28,0.28,0.51,0.51,0.68c0.23,0.18,0.55,0.26,0.98,0.26s0.77-0.08,1.03-0.23s0.47-0.36,0.6-0.62
		c0.14-0.26,0.23-0.55,0.28-0.87c0.04-0.32,0.07-0.66,0.07-1.01v-5.32h3.3V168.44z"/>
	<path class="st2" d="M81.83,160.9c-0.48-0.6-1.12-0.9-1.91-0.9c-0.28,0-0.55,0.07-0.81,0.2s-0.4,0.36-0.4,0.68
		c0,0.26,0.14,0.46,0.41,0.58c0.27,0.13,0.62,0.24,1.03,0.33c0.42,0.1,0.87,0.2,1.34,0.31c0.48,0.11,0.92,0.28,1.34,0.52
		s0.76,0.55,1.03,0.96s0.41,0.94,0.41,1.62c0,0.69-0.15,1.26-0.45,1.71s-0.69,0.81-1.16,1.08c-0.47,0.27-1,0.46-1.58,0.57
		c-0.59,0.11-1.17,0.17-1.74,0.17c-0.75,0-1.5-0.11-2.27-0.32c-0.76-0.21-1.41-0.59-1.94-1.13l2-2.22c0.31,0.38,0.65,0.67,1.02,0.87
		c0.37,0.2,0.81,0.3,1.31,0.3c0.38,0,0.73-0.05,1.03-0.17c0.31-0.11,0.46-0.31,0.46-0.6c0-0.28-0.14-0.49-0.41-0.63
		s-0.62-0.26-1.03-0.35c-0.42-0.09-0.87-0.2-1.34-0.31c-0.48-0.11-0.92-0.28-1.34-0.5s-0.76-0.53-1.03-0.94
		c-0.27-0.4-0.41-0.94-0.41-1.62c0-0.63,0.13-1.17,0.38-1.63c0.26-0.46,0.59-0.83,1.01-1.12c0.42-0.29,0.9-0.51,1.44-0.65
		c0.54-0.14,1.09-0.21,1.65-0.21c0.7,0,1.42,0.1,2.13,0.31c0.72,0.21,1.33,0.57,1.83,1.1L81.83,160.9z"/>
	<path class="st2" d="M96.09,166.6c-0.53,0.67-1.2,1.2-2,1.56c-0.81,0.37-1.64,0.55-2.51,0.55c-0.82,0-1.59-0.13-2.32-0.4
		c-0.73-0.26-1.36-0.64-1.89-1.13s-0.96-1.08-1.26-1.77s-0.46-1.46-0.46-2.31s0.15-1.62,0.46-2.31s0.73-1.28,1.26-1.77
		s1.17-0.87,1.89-1.13c0.73-0.26,1.5-0.4,2.32-0.4c0.76,0,1.46,0.13,2.08,0.4c0.62,0.26,1.15,0.64,1.58,1.13s0.77,1.08,1,1.77
		s0.35,1.46,0.35,2.31v1.03h-7.66c0.13,0.63,0.42,1.13,0.86,1.51c0.44,0.37,0.98,0.56,1.63,0.56c0.54,0,1-0.12,1.38-0.36
		c0.37-0.24,0.7-0.55,0.98-0.93L96.09,166.6z M93.3,161.89c0.01-0.56-0.17-1.03-0.55-1.43c-0.38-0.4-0.87-0.59-1.47-0.59
		c-0.37,0-0.69,0.06-0.97,0.18c-0.28,0.12-0.52,0.27-0.71,0.45c-0.2,0.18-0.35,0.4-0.46,0.64c-0.11,0.24-0.17,0.5-0.19,0.76H93.3z"
		/>
	<path class="st2" d="M105.11,157.75h3.17v1.45h0.04c0.1-0.21,0.25-0.41,0.44-0.62c0.19-0.21,0.42-0.39,0.68-0.55
		c0.26-0.16,0.56-0.29,0.9-0.4c0.34-0.1,0.7-0.15,1.1-0.15c0.84,0,1.51,0.13,2.02,0.38c0.51,0.26,0.91,0.61,1.2,1.07
		c0.29,0.46,0.48,0.99,0.58,1.61c0.1,0.62,0.15,1.28,0.15,2v5.9h-3.3v-5.24c0-0.31-0.01-0.63-0.03-0.96
		c-0.02-0.33-0.09-0.63-0.2-0.91c-0.11-0.28-0.28-0.51-0.51-0.68s-0.55-0.26-0.98-0.26c-0.42,0-0.77,0.08-1.03,0.23
		c-0.26,0.15-0.47,0.36-0.61,0.62s-0.23,0.55-0.27,0.87c-0.04,0.32-0.07,0.66-0.07,1.01v5.32h-3.3V157.75z"/>
	<path class="st2" d="M117.34,163.1c0-0.85,0.15-1.62,0.46-2.31c0.31-0.69,0.73-1.28,1.27-1.77c0.54-0.49,1.17-0.87,1.89-1.13
		c0.73-0.26,1.5-0.4,2.32-0.4s1.59,0.13,2.32,0.4c0.73,0.26,1.36,0.64,1.89,1.13c0.54,0.49,0.96,1.08,1.26,1.77
		c0.31,0.69,0.46,1.46,0.46,2.31s-0.15,1.62-0.46,2.31c-0.31,0.69-0.73,1.28-1.26,1.77c-0.54,0.49-1.17,0.87-1.89,1.13
		c-0.73,0.26-1.5,0.4-2.32,0.4s-1.59-0.13-2.32-0.4c-0.73-0.26-1.36-0.64-1.89-1.13c-0.54-0.49-0.96-1.08-1.27-1.77
		C117.5,164.72,117.34,163.95,117.34,163.1z M120.64,163.1c0,0.81,0.23,1.46,0.69,1.96c0.46,0.5,1.11,0.75,1.95,0.75
		s1.48-0.25,1.95-0.75c0.46-0.5,0.69-1.15,0.69-1.96s-0.23-1.46-0.69-1.96c-0.46-0.5-1.11-0.75-1.95-0.75s-1.49,0.25-1.95,0.75
		C120.87,161.64,120.64,162.29,120.64,163.1z"/>
	<path class="st2" d="M137.27,163.1c0-0.85,0.15-1.62,0.46-2.31c0.31-0.69,0.73-1.28,1.26-1.77s1.17-0.87,1.89-1.13
		c0.73-0.26,1.5-0.4,2.32-0.4s1.6,0.13,2.32,0.4c0.73,0.26,1.36,0.64,1.89,1.13s0.96,1.08,1.27,1.77c0.31,0.69,0.46,1.46,0.46,2.31
		s-0.15,1.62-0.46,2.31c-0.31,0.69-0.73,1.28-1.27,1.77s-1.17,0.87-1.89,1.13c-0.73,0.26-1.5,0.4-2.32,0.4s-1.59-0.13-2.32-0.4
		c-0.73-0.26-1.36-0.64-1.89-1.13s-0.96-1.08-1.26-1.77C137.43,164.72,137.27,163.95,137.27,163.1z M140.57,163.1
		c0,0.81,0.23,1.46,0.69,1.96c0.46,0.5,1.11,0.75,1.95,0.75s1.49-0.25,1.95-0.75c0.46-0.5,0.69-1.15,0.69-1.96s-0.23-1.46-0.69-1.96
		c-0.46-0.5-1.11-0.75-1.95-0.75s-1.48,0.25-1.95,0.75C140.8,161.64,140.57,162.29,140.57,163.1z"/>
	<path class="st2" d="M151.09,157.75h3.17v1.45h0.04c0.1-0.21,0.25-0.41,0.44-0.62c0.19-0.21,0.42-0.39,0.68-0.55
		c0.26-0.16,0.56-0.29,0.9-0.4c0.34-0.1,0.7-0.15,1.1-0.15c0.84,0,1.51,0.13,2.02,0.38c0.51,0.26,0.91,0.61,1.2,1.07
		c0.29,0.46,0.48,0.99,0.58,1.61c0.1,0.62,0.15,1.28,0.15,2v5.9h-3.3v-5.24c0-0.31-0.01-0.63-0.03-0.96
		c-0.02-0.33-0.09-0.63-0.2-0.91c-0.11-0.28-0.28-0.51-0.51-0.68s-0.55-0.26-0.98-0.26c-0.43,0-0.77,0.08-1.03,0.23
		c-0.26,0.15-0.47,0.36-0.6,0.62c-0.14,0.26-0.23,0.55-0.28,0.87s-0.07,0.66-0.07,1.01v5.32h-3.3V157.75z"/>
	<path class="st2" d="M173.84,166.6c-0.53,0.67-1.2,1.2-2,1.56s-1.64,0.55-2.51,0.55c-0.82,0-1.59-0.13-2.32-0.4
		c-0.73-0.26-1.36-0.64-1.89-1.13c-0.54-0.49-0.96-1.08-1.27-1.77c-0.31-0.69-0.46-1.46-0.46-2.31s0.15-1.62,0.46-2.31
		c0.31-0.69,0.73-1.28,1.27-1.77c0.54-0.49,1.17-0.87,1.89-1.13c0.73-0.26,1.5-0.4,2.32-0.4c0.76,0,1.46,0.13,2.08,0.4
		c0.62,0.26,1.15,0.64,1.58,1.13s0.77,1.08,1,1.77c0.23,0.69,0.35,1.46,0.35,2.31v1.03h-7.66c0.13,0.63,0.42,1.13,0.86,1.51
		c0.44,0.37,0.98,0.56,1.63,0.56c0.54,0,1-0.12,1.38-0.36c0.37-0.24,0.7-0.55,0.98-0.93L173.84,166.6z M171.04,161.89
		c0.01-0.56-0.17-1.03-0.55-1.43c-0.38-0.4-0.87-0.59-1.47-0.59c-0.37,0-0.69,0.06-0.97,0.18c-0.28,0.12-0.52,0.27-0.71,0.45
		c-0.2,0.18-0.35,0.4-0.46,0.64c-0.11,0.24-0.17,0.5-0.19,0.76H171.04z"/>
	<path class="st2" d="M182.9,151.81h3.3v16.63h-3.3V151.81z"/>
	<path class="st2" d="M188.36,154.39c0-0.53,0.19-0.98,0.56-1.35s0.83-0.56,1.35-0.56s0.98,0.19,1.35,0.56s0.56,0.83,0.56,1.35
		c0,0.53-0.19,0.98-0.56,1.35s-0.82,0.56-1.35,0.56s-0.98-0.19-1.35-0.56S188.36,154.91,188.36,154.39z M188.62,157.75h3.3v10.69
		h-3.3V157.75z"/>
	<path class="st2" d="M194.3,151.81h3.3v10.16l3.65-4.22h4.05l-4.25,4.82l4.36,5.87h-4.16l-3.61-5.41h-0.04v5.41h-3.3V151.81z"/>
	<path class="st2" d="M216.65,166.6c-0.53,0.67-1.2,1.2-2,1.56c-0.81,0.37-1.64,0.55-2.51,0.55c-0.82,0-1.59-0.13-2.32-0.4
		c-0.73-0.26-1.36-0.64-1.89-1.13s-0.96-1.08-1.26-1.77s-0.46-1.46-0.46-2.31s0.15-1.62,0.46-2.31s0.73-1.28,1.26-1.77
		s1.17-0.87,1.89-1.13c0.73-0.26,1.5-0.4,2.32-0.4c0.76,0,1.46,0.13,2.08,0.4c0.62,0.26,1.15,0.64,1.58,1.13s0.77,1.08,1,1.77
		s0.35,1.46,0.35,2.31v1.03h-7.66c0.13,0.63,0.42,1.13,0.86,1.51c0.44,0.37,0.98,0.56,1.63,0.56c0.54,0,1-0.12,1.38-0.36
		c0.37-0.24,0.7-0.55,0.98-0.93L216.65,166.6z M213.86,161.89c0.01-0.56-0.17-1.03-0.55-1.43c-0.38-0.4-0.87-0.59-1.47-0.59
		c-0.37,0-0.69,0.06-0.97,0.18c-0.28,0.12-0.52,0.27-0.71,0.45c-0.2,0.18-0.35,0.4-0.46,0.64c-0.11,0.24-0.17,0.5-0.19,0.76H213.86z
		"/>
	<path class="st2" d="M225.21,160.9c-0.48-0.6-1.12-0.9-1.91-0.9c-0.28,0-0.55,0.07-0.81,0.2c-0.26,0.13-0.4,0.36-0.4,0.68
		c0,0.26,0.14,0.46,0.41,0.58c0.27,0.13,0.62,0.24,1.03,0.33c0.42,0.1,0.87,0.2,1.34,0.31c0.48,0.11,0.92,0.28,1.34,0.52
		s0.76,0.55,1.03,0.96s0.41,0.94,0.41,1.62c0,0.69-0.15,1.26-0.45,1.71c-0.3,0.45-0.69,0.81-1.16,1.08c-0.47,0.27-1,0.46-1.58,0.57
		c-0.59,0.11-1.17,0.17-1.74,0.17c-0.75,0-1.5-0.11-2.27-0.32c-0.76-0.21-1.41-0.59-1.94-1.13l2-2.22c0.31,0.38,0.65,0.67,1.02,0.87
		s0.81,0.3,1.31,0.3c0.38,0,0.73-0.05,1.03-0.17c0.31-0.11,0.46-0.31,0.46-0.6c0-0.28-0.14-0.49-0.41-0.63
		c-0.27-0.14-0.62-0.26-1.03-0.35c-0.42-0.09-0.87-0.2-1.34-0.31c-0.48-0.11-0.92-0.28-1.34-0.5s-0.76-0.53-1.03-0.94
		c-0.27-0.4-0.41-0.94-0.41-1.62c0-0.63,0.13-1.17,0.38-1.63c0.26-0.46,0.59-0.83,1.01-1.12c0.42-0.29,0.9-0.51,1.44-0.65
		c0.54-0.14,1.09-0.21,1.65-0.21c0.7,0,1.42,0.1,2.13,0.31c0.72,0.21,1.33,0.57,1.83,1.1L225.21,160.9z"/>
	<path class="st2" d="M236.27,152.87h5.19l3.59,10.16h0.04l3.61-10.16h5.17v15.58h-3.43V156.5h-0.04l-4.09,11.95h-2.62l-3.94-11.95
		h-0.04v11.95h-3.43V152.87z"/>
	<path class="st2" d="M256.23,163.1c0-0.85,0.15-1.62,0.46-2.31c0.31-0.69,0.73-1.28,1.26-1.77s1.17-0.87,1.89-1.13
		c0.73-0.26,1.5-0.4,2.32-0.4s1.6,0.13,2.32,0.4c0.73,0.26,1.36,0.64,1.89,1.13s0.96,1.08,1.27,1.77c0.31,0.69,0.46,1.46,0.46,2.31
		s-0.15,1.62-0.46,2.31c-0.31,0.69-0.73,1.28-1.27,1.77s-1.17,0.87-1.89,1.13c-0.73,0.26-1.5,0.4-2.32,0.4s-1.59-0.13-2.32-0.4
		c-0.73-0.26-1.36-0.64-1.89-1.13s-0.96-1.08-1.26-1.77C256.38,164.72,256.23,163.95,256.23,163.1z M259.53,163.1
		c0,0.81,0.23,1.46,0.69,1.96c0.46,0.5,1.11,0.75,1.95,0.75s1.49-0.25,1.95-0.75c0.46-0.5,0.69-1.15,0.69-1.96s-0.23-1.46-0.69-1.96
		c-0.46-0.5-1.11-0.75-1.95-0.75s-1.48,0.25-1.95,0.75C259.76,161.64,259.53,162.29,259.53,163.1z"/>
	<path class="st2" d="M270.04,157.75h3.17v1.45h0.04c0.1-0.21,0.25-0.41,0.44-0.62c0.19-0.21,0.42-0.39,0.68-0.55
		c0.26-0.16,0.56-0.29,0.9-0.4c0.34-0.1,0.7-0.15,1.1-0.15c0.84,0,1.51,0.13,2.02,0.38c0.51,0.26,0.91,0.61,1.2,1.07
		c0.29,0.46,0.48,0.99,0.58,1.61c0.1,0.62,0.15,1.28,0.15,2v5.9h-3.3v-5.24c0-0.31-0.01-0.63-0.03-0.96
		c-0.02-0.33-0.09-0.63-0.2-0.91c-0.11-0.28-0.28-0.51-0.51-0.68s-0.55-0.26-0.98-0.26c-0.42,0-0.77,0.08-1.03,0.23
		c-0.26,0.15-0.47,0.36-0.61,0.62s-0.23,0.55-0.27,0.87c-0.04,0.32-0.07,0.66-0.07,1.01v5.32h-3.3V157.75z"/>
	<path class="st2" d="M293.89,168.44h-3.04v-1.41h-0.04c-0.13,0.19-0.3,0.38-0.52,0.58c-0.21,0.2-0.46,0.38-0.75,0.54
		c-0.29,0.16-0.6,0.29-0.95,0.4c-0.34,0.1-0.7,0.15-1.07,0.15c-0.79,0-1.51-0.14-2.16-0.41c-0.65-0.27-1.2-0.65-1.66-1.14
		s-0.82-1.07-1.07-1.75c-0.25-0.67-0.37-1.42-0.37-2.22c0-0.75,0.11-1.46,0.34-2.15c0.23-0.68,0.55-1.29,0.97-1.81
		c0.42-0.53,0.93-0.95,1.53-1.27c0.6-0.31,1.28-0.47,2.05-0.47c0.69,0,1.33,0.11,1.92,0.32s1.08,0.58,1.46,1.09h0.04v-7.08h3.3
		V168.44z M290.85,163.1c0-0.81-0.23-1.46-0.69-1.96c-0.46-0.5-1.11-0.75-1.95-0.75s-1.49,0.25-1.95,0.75
		c-0.46,0.5-0.69,1.15-0.69,1.96s0.23,1.46,0.69,1.96c0.46,0.5,1.11,0.75,1.95,0.75s1.49-0.25,1.95-0.75
		C290.62,164.56,290.85,163.9,290.85,163.1z"/>
	<path class="st2" d="M303.24,167.1h-0.04c-0.37,0.57-0.85,0.98-1.46,1.23c-0.61,0.25-1.25,0.37-1.92,0.37
		c-0.5,0-0.98-0.07-1.44-0.21c-0.46-0.14-0.87-0.35-1.22-0.63c-0.35-0.28-0.63-0.62-0.84-1.03c-0.21-0.41-0.31-0.89-0.31-1.43
		c0-0.62,0.11-1.14,0.34-1.56c0.23-0.43,0.54-0.78,0.92-1.06c0.39-0.28,0.83-0.5,1.33-0.65c0.5-0.15,1.01-0.27,1.55-0.34
		c0.54-0.07,1.07-0.12,1.61-0.13c0.54-0.01,1.03-0.02,1.49-0.02c0-0.59-0.21-1.05-0.63-1.4c-0.42-0.34-0.91-0.52-1.49-0.52
		c-0.54,0-1.04,0.11-1.48,0.34c-0.45,0.23-0.85,0.54-1.2,0.94l-1.76-1.8c0.62-0.57,1.33-1,2.16-1.29s1.67-0.43,2.55-0.43
		c0.97,0,1.76,0.12,2.39,0.36c0.62,0.24,1.12,0.6,1.5,1.07c0.37,0.47,0.63,1.04,0.78,1.73c0.15,0.68,0.22,1.47,0.22,2.37v5.43h-3.04
		V167.1z M302.42,163.76c-0.25,0-0.56,0.01-0.93,0.03c-0.37,0.02-0.73,0.08-1.08,0.19s-0.64,0.26-0.88,0.46s-0.36,0.49-0.36,0.86
		c0,0.4,0.17,0.69,0.51,0.88c0.34,0.19,0.69,0.29,1.06,0.29c0.32,0,0.63-0.04,0.93-0.13s0.57-0.21,0.8-0.37
		c0.23-0.16,0.42-0.37,0.56-0.62c0.14-0.25,0.21-0.54,0.21-0.88v-0.7H302.42z"/>
	<path class="st2" d="M314.5,170.18c-0.22,0.57-0.43,1.08-0.64,1.52c-0.21,0.44-0.47,0.81-0.78,1.11c-0.32,0.3-0.71,0.53-1.2,0.68
		s-1.12,0.23-1.91,0.23c-0.85,0-1.67-0.13-2.46-0.4l0.44-2.71c0.5,0.22,1.01,0.33,1.54,0.33c0.37,0,0.67-0.04,0.9-0.12
		c0.23-0.08,0.43-0.2,0.58-0.35s0.28-0.34,0.38-0.56c0.1-0.22,0.21-0.48,0.33-0.77l0.24-0.62l-4.69-10.78h3.56l2.75,7.06h0.04
		l2.35-7.06h3.39L314.5,170.18z"/>
	<path class="st2" d="M326.63,160.9c-0.48-0.6-1.12-0.9-1.91-0.9c-0.28,0-0.55,0.07-0.81,0.2c-0.26,0.13-0.4,0.36-0.4,0.68
		c0,0.26,0.14,0.46,0.41,0.58c0.27,0.13,0.62,0.24,1.03,0.33c0.42,0.1,0.87,0.2,1.34,0.31c0.48,0.11,0.92,0.28,1.34,0.52
		s0.76,0.55,1.03,0.96s0.41,0.94,0.41,1.62c0,0.69-0.15,1.26-0.45,1.71s-0.69,0.81-1.16,1.08s-1,0.46-1.58,0.57
		c-0.59,0.11-1.17,0.17-1.74,0.17c-0.75,0-1.5-0.11-2.27-0.32c-0.76-0.21-1.41-0.59-1.94-1.13l2-2.22c0.31,0.38,0.65,0.67,1.02,0.87
		s0.81,0.3,1.31,0.3c0.38,0,0.73-0.05,1.03-0.17c0.31-0.11,0.46-0.31,0.46-0.6c0-0.28-0.14-0.49-0.41-0.63s-0.62-0.26-1.03-0.35
		c-0.42-0.09-0.87-0.2-1.34-0.31c-0.48-0.11-0.92-0.28-1.34-0.5s-0.76-0.53-1.03-0.94c-0.27-0.4-0.41-0.94-0.41-1.62
		c0-0.63,0.13-1.17,0.38-1.63c0.26-0.46,0.59-0.83,1.01-1.12c0.42-0.29,0.9-0.51,1.44-0.65c0.54-0.14,1.09-0.21,1.65-0.21
		c0.7,0,1.42,0.1,2.13,0.31c0.72,0.21,1.33,0.57,1.83,1.1L326.63,160.9z"/>
	<path class="st2" d="M330.83,166.55c0-0.28,0.05-0.54,0.15-0.79c0.1-0.25,0.25-0.47,0.43-0.65c0.18-0.18,0.4-0.33,0.65-0.43
		s0.51-0.15,0.79-0.15s0.54,0.05,0.79,0.15s0.47,0.25,0.65,0.43c0.18,0.18,0.33,0.4,0.43,0.65c0.1,0.25,0.15,0.51,0.15,0.79
		c0,0.28-0.05,0.54-0.15,0.79c-0.1,0.25-0.25,0.47-0.43,0.65c-0.18,0.18-0.4,0.33-0.65,0.43c-0.25,0.1-0.51,0.15-0.79,0.15
		s-0.54-0.05-0.79-0.15c-0.25-0.1-0.47-0.25-0.65-0.43c-0.18-0.18-0.33-0.4-0.43-0.65C330.88,167.09,330.83,166.83,330.83,166.55z"
		/>
</g>
</svg>
